<?xml version="1.0" encoding="UTF-8" standalone="no"?>
<svg width="313px" height="319px" viewBox="0 0 313 319" version="1.1" xmlns="http://www.w3.org/2000/svg" xmlns:xlink="http://www.w3.org/1999/xlink" xmlns:sketch="http://www.bohemiancoding.com/sketch/ns">
    <title>Slice 1</title>
    <description>Created with Sketch (http://www.bohemiancoding.com/sketch)</description>
    <defs></defs>
    <g id="Page-1" stroke="none" stroke-width="1" fill="none" fill-rule="evenodd" sketch:type="MSPage">
        <g id="Path-1-+-Oval-1" sketch:type="MSLayerGroup" transform="translate(158.000000, 2.000000)" stroke="#9EC619" stroke-width="2.22428174" fill="#BDD74D">
            <g id="Path-1" transform="translate(0.000000, 19.462465)" sketch:type="MSShapeGroup">
                <path d="M9.09649123,1.39017613 C6.31359649,4.26827509 3.54358294,11.3987467 1.09033334,20.6522343 C-1.36291663,29.9057217 1.09033326,41.8182555 1.09033326,41.8182555 C1.09033326,41.8182555 5.0685635,45.5977778 16.1575262,45.5977757 C27.246489,45.5977725 30.6847681,41.8182555 30.6847681,41.8182555 C30.6847681,41.8182555 33.6440399,31.0062933 30.684768,20.6522338 C27.7254957,10.2981744 22.6009532,1.39017609 22.6009532,1.39017609 C22.6009532,1.39017609 11.8793859,-1.48792287 9.09649123,1.39017613 Z"></path>
            </g>
            <ellipse id="Oval-1" sketch:type="MSShapeGroup" cx="15.0175439" cy="11.8164968" rx="11.9298246" ry="11.8164968"></ellipse>
        </g>
        <g id="Path-1" sketch:type="MSLayerGroup" transform="translate(275.000000, 187.000000)" stroke-width="2.22428174" stroke="#F59146" fill="#F9A55E">
            <path d="M9.09649123,1.39017613 C6.31359649,4.26827509 3.54358294,11.3987467 1.09033334,20.6522343 C-1.36291663,29.9057217 1.09033326,41.8182555 1.09033326,41.8182555 C1.09033326,41.8182555 5.0685635,45.5977778 16.1575262,45.5977757 C27.246489,45.5977725 30.6847681,41.8182555 30.6847681,41.8182555 C30.6847681,41.8182555 33.6440399,31.0062933 30.684768,20.6522338 C27.7254957,10.2981744 22.6009532,1.39017609 22.6009532,1.39017609 C22.6009532,1.39017609 11.8793859,-1.48792287 9.09649123,1.39017613 Z" sketch:type="MSShapeGroup"></path>
        </g>
        <circle id="Oval-1" stroke="#F59146" stroke-width="2.22428174" fill="#F9A55E" sketch:type="MSShapeGroup" cx="290" cy="179" r="12"></circle>
        <rect id="Rectangle-1" stroke="#56AFE4" stroke-width="2.22428174" fill="#78CFEB" sketch:type="MSShapeGroup" x="152" y="114" width="43" height="43" rx="8"></rect>
        <rect id="Rectangle-1" stroke="#56AFE4" stroke-width="2.22428174" fill="#78CFEB" sketch:type="MSShapeGroup" x="89" y="274" width="63" height="21" rx="8"></rect>
        <rect id="Rectangle-1" stroke="#56AFE4" stroke-width="2.22428174" fill="#78CFEB" sketch:type="MSShapeGroup" x="183" y="185" width="43" height="43" rx="8"></rect>
        <circle id="Oval-2" stroke="#EDD456" stroke-width="2.22428174" fill="#FBED38" sketch:type="MSShapeGroup" cx="83.5" cy="135.5" r="21.5"></circle>
        <circle id="Oval-2" stroke="#CF6161" stroke-width="2.50231696" fill="#F98686" sketch:type="MSShapeGroup" cx="27.5" cy="206.5" r="21.5"></circle>
        <circle id="Oval-2" stroke="#EDD456" stroke-width="2.22428174" fill="#FBED38" sketch:type="MSShapeGroup" cx="117.5" cy="206.5" r="21.5"></circle>
        <circle id="Oval-2" stroke="#AE74B2" stroke-width="2.22428174" fill="#C899C6" sketch:type="MSShapeGroup" cx="203.5" cy="294.5" r="21.5"></circle>
        <g id="Line" sketch:type="MSLayerGroup" transform="translate(129.500000, 136.000000) rotate(-270.000000) translate(-129.500000, -136.000000) translate(123.000000, 118.000000)" stroke-width="2.22428174" stroke="#979797" stroke-linecap="round" stroke-linejoin="round">
            <path d="M6.5,0.139017609 L6.5,35.7318698 L6.5,0.139017609 Z M6.5,35.7275255 L12.8621176,29.604435 L6.5,35.7275255 Z M6.5,35.7275255 L0.287209529,29.748152 L6.5,35.7275255 Z" sketch:type="MSShapeGroup"></path>
        </g>
        <g id="Line" sketch:type="MSLayerGroup" transform="translate(250.500000, 207.000000) rotate(-270.000000) translate(-250.500000, -207.000000) translate(244.000000, 189.000000)" stroke-width="2.22428174" stroke="#979797" stroke-linecap="round" stroke-linejoin="round">
            <path d="M6.5,0.139017609 L6.5,35.7318698 L6.5,0.139017609 Z M6.5,35.7275255 L12.8621176,29.604435 L6.5,35.7275255 Z M6.5,35.7275255 L0.287209529,29.748152 L6.5,35.7275255 Z" sketch:type="MSShapeGroup"></path>
        </g>
        <g id="Line" sketch:type="MSLayerGroup" transform="translate(54.500000, 170.000000) rotate(38.000000) translate(-54.500000, -170.000000) translate(48.000000, 152.000000)" stroke-width="2.22428174" stroke="#979797" stroke-linecap="round" stroke-linejoin="round">
            <path d="M6.5,0.139017609 L6.5,35.7318698 L6.5,0.139017609 Z M6.5,35.7275255 L12.8621176,29.604435 L6.5,35.7275255 Z M6.5,35.7275255 L0.287209529,29.748152 L6.5,35.7275255 Z" sketch:type="MSShapeGroup"></path>
        </g>
        <g id="Line" sketch:type="MSLayerGroup" transform="translate(74.500000, 207.000000) rotate(-90.000000) translate(-74.500000, -207.000000) translate(68.000000, 189.000000)" stroke-width="2.22428174" stroke="#979797" stroke-linecap="round" stroke-linejoin="round">
            <path d="M6.5,0.139017609 L6.5,35.7318698 L6.5,0.139017609 Z M6.5,35.7275255 L12.8621176,29.604435 L6.5,35.7275255 Z M6.5,35.7275255 L0.287209529,29.748152 L6.5,35.7275255 Z" sketch:type="MSShapeGroup"></path>
        </g>
        <g id="Line" sketch:type="MSLayerGroup" transform="translate(162.500000, 250.000000) rotate(-43.000000) translate(-162.500000, -250.000000) translate(153.000000, 216.000000)" stroke-width="2.22428174" stroke="#979797" stroke-linecap="round" stroke-linejoin="round">
            <path d="M9.35820896,67.648855 L9.35820896,0.263565891 L9.35820896,67.648855 L9.43218689,67.740458 L9.35820896,67.648855 Z M9.35820896,67.648855 L9.35820896,67.7446705 L9.35820896,67.648855 L0.416771378,56.5771351 L9.35820896,67.648855 Z M9.56781311,67.740458 L18.799918,56.3088194 L9.56781311,67.740458 Z" sketch:type="MSShapeGroup"></path>
        </g>
        <g id="Line" sketch:type="MSLayerGroup" transform="translate(114.000000, 232.000000)" stroke-width="2.22428174" stroke="#979797" stroke-linecap="round" stroke-linejoin="round">
            <path d="M6.5,0.139017609 L6.5,35.7318698 L6.5,0.139017609 Z M6.5,35.7275255 L12.8621176,29.604435 L6.5,35.7275255 Z M6.5,35.7275255 L0.287209529,29.748152 L6.5,35.7275255 Z" sketch:type="MSShapeGroup"></path>
        </g>
        <g id="Line" sketch:type="MSLayerGroup" transform="translate(198.000000, 232.000000)" stroke-width="2.22428174" stroke="#979797" stroke-linecap="round" stroke-linejoin="round">
            <path d="M6.5,0.139017609 L6.5,35.7318698 L6.5,0.139017609 Z M6.5,35.7275255 L12.8621176,29.604435 L6.5,35.7275255 Z M6.5,35.7275255 L0.287209529,29.748152 L6.5,35.7275255 Z" sketch:type="MSShapeGroup"></path>
        </g>
        <g id="Line" sketch:type="MSLayerGroup" transform="translate(167.000000, 73.000000)" stroke-width="2.22428174" stroke="#979797" stroke-linecap="round" stroke-linejoin="round">
            <path d="M6.5,0.139017609 L6.5,35.7318698 L6.5,0.139017609 Z M6.5,35.7275255 L12.8621176,29.604435 L6.5,35.7275255 Z M6.5,35.7275255 L0.287209529,29.748152 L6.5,35.7275255 Z" sketch:type="MSShapeGroup"></path>
        </g>
    </g>
</svg>