<?xml version="1.0" encoding="UTF-8" standalone="no"?>
<svg width="167px" height="177px" viewBox="0 0 167 177" version="1.1" xmlns="http://www.w3.org/2000/svg" xmlns:xlink="http://www.w3.org/1999/xlink" xmlns:sketch="http://www.bohemiancoding.com/sketch/ns">
    <g id="Page-1" stroke="none" stroke-width="1" fill="none" fill-rule="evenodd" sketch:type="MSPage">
        <g id="angular" sketch:type="MSLayerGroup" transform="translate(1.000000, 1.000000)">
            <g id="Group" sketch:type="MSShapeGroup">
                <path d="M82.243,-0.125 L-0.446,28.975 L12.621,137.311 L82.331,175.625 L152.4,136.792 L165.462,28.46 L82.243,-0.125 Z" id="Shape" fill="#B3B3B3"></path>
                <path d="M157.214,34.721 L82.05,9.089 L82.05,166.471 L145.041,131.609 L157.214,34.721 Z" id="Shape" fill="#A6120D"></path>
                <path d="M8.833,35.183 L20.03,132.072 L82.049,166.471 L82.049,9.086 L8.833,35.183 Z" id="Shape" fill="#DD1B16"></path>
                <path d="M102.74,92.871 L82.05,102.546 L60.243,102.546 L49.992,128.186 L30.925,128.539 L82.05,14.804 L102.74,92.871 L102.74,92.871 Z M100.74,88 L82.187,51.271 L66.969,87.368 L82.049,87.368 L100.74,88 L100.74,88 Z" id="Shape" fill="#F2F2F2"></path>
                <path d="M82.049,14.804 L82.186,51.271 L99.454,87.396 L82.088,87.396 L82.049,102.523 L106.062,102.546 L117.285,128.543 L135.529,128.881 L82.049,14.804 Z" id="Shape" fill="#B3B3B3"></path>
            </g>
        </g>
    </g>
</svg>
