<?xml version="1.0" encoding="UTF-8" standalone="no"?>
<svg width="120px" height="120px" viewBox="0 0 120 120" version="1.1" xmlns="http://www.w3.org/2000/svg" xmlns:xlink="http://www.w3.org/1999/xlink" xmlns:sketch="http://www.bohemiancoding.com/sketch/ns">
    <g id="Page-1" stroke="none" stroke-width="1" fill="none" fill-rule="evenodd" sketch:type="MSPage">
        <path d="M8.72070312,-0.00390625 L113.59668,-0.00390625 L104.077148,108.34375 L61.5341797,119.541992 L17.8339844,108.34375 L8.72070312,-0.00390625 Z" id="Path-2" fill="#E24E30" sketch:type="MSShapeGroup"></path>
        <path d="M62.3007812,9.54980469 L105.714844,9.54980469 L97.4726562,102.242188 L62.7148438,111.290039 L62.3007812,9.54980469 Z" id="Path-1" fill="#EF6534" sketch:type="MSShapeGroup"></path>
        <path d="M95.2519531,22.8271484 L29.2050781,22.6416016 L31.6767578,63.3632812 L77.9902344,63.5419922 L76.640625,79.7109375 L61.9082031,83.8027344 L47.6591797,79.7109375 L46.2880859,69.1767578 L32.9042969,69.3623047 L34.1611328,90.9511719 L62.0498047,98.75 L89.8378906,90.9511719 L93.1230469,49.1650391 L45.0878906,49.4863281 L43.5957031,36.9746094 L94.6582031,36.7246094 L95.2519531,22.8271484 Z" id="Path-3" fill="#FFFFFF" sketch:type="MSShapeGroup"></path>
        <path d="M62.765625,22.7358839 L29.2050781,22.6416016 L31.6767578,63.3632812 L62.765625,63.4832446 L62.765625,49.3680884 L45.0878906,49.4863281 L43.5957031,36.9746094 L62.765625,36.8807542 L62.765625,22.7358839 Z M62.765625,83.5645932 L61.9082031,83.8027344 L47.6591797,79.7109375 L46.2880859,69.1767578 L32.9042969,69.3623047 L34.1611328,90.9511719 L62.0498047,98.75 L62.765625,98.5491024 L62.765625,83.5645932 Z" id="Path-3" fill="#E2DEDE" sketch:type="MSShapeGroup"></path>
    </g>
</svg>
