<?xml version="1.0" encoding="UTF-8" standalone="no"?>
<svg width="217px" height="245px" viewBox="0 0 217 245" version="1.1" xmlns="http://www.w3.org/2000/svg" xmlns:xlink="http://www.w3.org/1999/xlink" xmlns:sketch="http://www.bohemiancoding.com/sketch/ns">
    <title>Slice 1</title>
    <description>Created with Sketch (http://www.bohemiancoding.com/sketch)</description>
    <defs></defs>
    <g id="Page-1" stroke="none" stroke-width="1" fill="none" fill-rule="evenodd" sketch:type="MSPage">
        <path d="M108.56969,0.162109375 C105.288256,0.162109375 102.029715,1.02062418 99.1603676,2.68102233 L69.1924775,20.4117492 C64.7205693,22.9157126 66.9031047,23.8010894 68.3759346,24.3168088 C74.3511976,26.3885385 75.556934,26.8654912 81.9290216,30.4784267 C82.5929397,30.8510603 83.4705326,30.7109507 84.1573445,30.308479 L107.173172,16.640847 C108.012609,16.1787752 109.187821,16.1787752 109.958576,16.640847 L199.70199,68.440883 C200.541427,68.9178356 201.075614,69.8806695 201.075614,70.8703654 L201.075614,174.443957 C201.075614,175.457386 200.541427,176.405186 199.686728,176.918006 L109.973839,228.676146 C109.142033,229.159204 108.043134,229.159204 107.203697,228.676146 L17.513702,176.902743 C16.6437403,176.405186 16.0942909,175.427624 16.0942909,174.443957 L16.0942909,70.8703654 C16.0942909,69.8806695 16.6437403,68.9416451 17.5060708,68.4706448 L42.0939347,54.2664602 C55.433347,47.5980514 63.6064079,55.4528895 63.6064079,63.3434418 L63.6064079,165.605452 C63.6064079,167.050809 64.7663568,168.192443 66.2086617,168.192443 L77.5944758,168.192443 C79.0138869,168.192443 80.1890983,167.050809 80.1890983,165.605452 L80.1890983,63.3434418 C80.1890983,45.5412025 70.49742,35.3314392 53.6171112,35.3314392 C48.4278662,35.3314392 44.3451513,35.3314392 32.9440747,40.9504758 L9.40932225,54.4989841 C3.59431531,57.8584861 0,64.1423566 0,70.8703654 L0,174.443957 C0,181.174713 3.59431531,187.455226 9.40932225,190.803052 L99.1603676,242.662688 C104.838012,245.876204 112.385311,245.876204 118.017168,242.662688 L207.760582,190.803052 C213.575589,187.440726 217.185167,181.174713 217.185167,174.443957 L217.185167,70.8703654 C217.185167,64.1423566 213.575589,57.8822956 207.760582,54.4989841 L118.017168,2.68102233 C115.147821,1.02062418 111.896912,0.162109375 108.56969,0.162109375" id="path30" fill="#83CD29" sketch:type="MSShapeGroup" transform="translate(108.745208, 122.643555) scale(1, -1) translate(-108.745208, -122.643555) "></path>
        <path d="M139.079398,73.4220393 C99.801392,73.4220393 91.5749124,91.4482555 91.5749124,106.570326 C91.5749124,108.007289 92.7348613,109.155028 94.1695349,109.155028 L105.776655,109.155028 C107.073966,109.155028 108.149972,108.224779 108.356015,106.957993 C110.10357,95.1440664 115.330971,89.1825396 139.079398,89.1825396 C157.981986,89.1825396 166.032947,93.4598511 166.032947,103.49112 C166.032947,109.274075 163.751206,113.566649 134.370921,116.442865 C109.813582,118.872652 94.6274095,124.297703 94.6274095,143.942811 C94.6274095,162.05175 109.889895,172.851485 135.477452,172.851485 C164.231974,172.851485 178.456611,162.871345 180.257584,141.462657 C180.326265,140.72319 180.066803,140.016537 179.578403,139.464798 C179.082372,138.949689 178.395561,138.636045 177.678224,138.636045 L166.025316,138.636045 C164.81958,138.636045 163.751206,139.49456 163.507006,140.663666 C160.713971,153.094197 153.914534,157.067785 135.477452,157.067785 C114.83494,157.067785 112.43873,149.874576 112.43873,144.487682 C112.43873,137.959917 115.269921,136.058211 143.139219,132.370795 C170.71853,128.724587 183.821374,123.562051 183.821374,104.176405 C183.821374,84.6213458 167.513408,73.4220393 139.079398,73.4220393" id="path32" fill="#83CD29" sketch:type="MSShapeGroup" transform="translate(137.743931, 123.025117) scale(1, -1) translate(-137.743931, -123.025117) "></path>
    </g>
</svg>