<?xml version="1.0" encoding="UTF-8" standalone="no"?>
<svg width="106px" height="123px" viewBox="0 0 106 123" version="1.1" xmlns="http://www.w3.org/2000/svg" xmlns:xlink="http://www.w3.org/1999/xlink" xmlns:sketch="http://www.bohemiancoding.com/sketch/ns">
    <g id="Page-1" stroke="none" stroke-width="1" fill="none" fill-rule="evenodd" sketch:type="MSPage">
        <path d="M40.6963703,105.150858 L33.2714106,109.439434 L52.7343677,121.686163 L105.242117,90.5016435 L105.242117,32.1313394 L52.8423597,0.750731319 L0.805041281,30.8967534 L0.805041281,86.5542617 C0.80504122,94.4914311 19.507617,103.38597 28.482782,103.385969 C36.7678327,101.864463 39.0938291,95.4204701 39.0938261,92.4914311 C39.0938291,77.1120594 39.0938275,38.8949604 39.0938275,38.8949604 L31.4489714,38.8149291 C31.4489714,38.8149291 31.5489721,85.8932484 31.5489714,90.1159202 C31.1661997,92.6126698 29.4058904,95.4204701 25.4582682,95.4204716 C21.510646,95.4204734 8.00795552,89.4848622 8.00795529,84.8895248 L8.00795529,35.5851032 L52.7587769,9.85328177 L97.17718,35.6291671 L97.17718,86.5365977 L52.8021286,112.437753 L40.6963703,105.150858 Z" id="Path-1" stroke="#80BA32" fill="#8ABE4D" sketch:type="MSShapeGroup"></path>
        <path d="M85.6930077,54.3939222 C85.6930077,54.3939222 85.8873618,49.2647508 85.2784695,47.8403892 C84.9477848,45.6497036 81.0734104,40.5058974 74.1534924,38.8347018 C68.9166717,37.8637479 62.5450576,37.0069096 56.6140923,38.8347018 C50.5793084,40.8243659 45.4460404,46.0567434 45.0156777,48.3937519 C44.4856374,50.7774058 44.6541729,52.0157146 44.654173,54.3044376 C45.0137341,59.315525 49.7890946,61.2874203 49.7890946,61.2874203 C49.7890946,61.2874203 53.948065,63.3706531 58.5121309,63.8598785 C66.723174,64.4668298 71.2389285,65.4488865 74.6487888,66.3060033 C78.5392672,67.93634 79.447195,70.0634874 79.447195,70.0634874 C79.447195,70.0634874 79.759,72.2277965 79.4471943,73.3234157 C77.9800732,76.6860752 75.0999761,77.4909929 75.0999761,77.4909929 C75.0999761,77.4909929 73.3024475,78.0154819 70.9729359,78.3031292 C68.6434243,78.5907766 63.7877173,78.7463745 60.4051713,78.303129 C57.0226252,77.8598834 55.6966296,77.2813629 53.8292286,76.0566349 C51.9618275,74.831907 51.1418216,72.9641323 51.1418217,72.2277955 C51.1418216,70.6859875 51.1418217,68.4205683 51.1418217,68.4205683 L43.6092648,68.4205683 L43.6092648,74.1264586 C43.6092648,76.0566349 44.980971,78.0160351 46.5424936,79.5459055 C48.1040161,81.075776 51.9936623,83.3805752 51.9936623,83.3805752 C51.9936623,83.3805752 53.8292288,84.4240948 57.5236846,85.1965278 C63.2791618,86.0243931 70.3555054,85.7758133 74.1534914,85.1965278 C77.9514774,84.6172428 79.3929003,84.0589164 82.6024479,81.4941997 C85.8119956,78.9294832 86.1905631,77.0736769 86.9993672,74.6694774 C87.8081712,72.2652779 88.085545,68.4205684 86.9993672,66.3060036 C85.9131896,64.1914385 84.6904033,62.6034953 81.6525959,60.9942169 C78.6147885,59.3849386 76.3279804,58.8380699 73.059502,58.1615982 C69.7910236,57.4851265 64.9434151,57.6476612 62.2693352,57.1198425 C59.5952553,56.5920237 55.2735819,55.6491129 53.8292288,54.0070705 C52.3848758,52.365028 52.806909,49.4649391 53.8292288,48.3937521 C54.8515486,47.322565 56.0801643,46.3521671 58.5121311,45.649704 C60.9440979,44.9472408 66.5816213,44.9431827 69.5807823,45.3648314 C72.5799433,45.7864801 74.228703,46.9369058 76.1109127,48.6789026 C77.9931225,50.4208994 78.3424122,54.3044372 78.3424122,54.3044372 L85.6930077,54.3939222 Z" id="Path-2" stroke="#80BA32" fill="#8ABE4D" sketch:type="MSShapeGroup"></path>
    </g>
</svg>
